<svg width="12" height="12" viewBox="0 0 12 12" fill="none" xmlns="http://www.w3.org/2000/svg">
<circle cx="5.6" cy="5.6" r="5.6" fill="white"/>
<path d="M5.60107 0.266663C8.544 0.266663 10.9333 2.656 10.9333 5.59893C10.9333 8.54133 8.544 10.9307 5.60107 10.9307C2.65867 10.9307 0.269333 8.54133 0.269333 5.59893C0.269333 2.656 2.65867 0.266663 5.60107 0.266663ZM5.20267 5.2H3.336C3.1152 5.2 2.936 5.3792 2.936 5.6C2.936 5.8208 3.1152 6 3.336 6H5.20267V7.86666C5.20267 8.08746 5.38187 8.26666 5.60267 8.26666C5.82347 8.26666 6.00267 8.08746 6.00267 7.86666V6H7.86933C8.09013 6 8.26933 5.8208 8.26933 5.6C8.26933 5.3792 8.09013 5.2 7.86933 5.2H6.00267V3.33333C6.00267 3.11253 5.82347 2.93333 5.60267 2.93333C5.38187 2.93333 5.20267 3.11253 5.20267 3.33333V5.2Z" fill="#4FC364"/>
</svg>
