<svg width="24" height="24" viewBox="0 0 24 24" fill="none" xmlns="http://www.w3.org/2000/svg">
<path d="M12.002 2C17.52 2 22 6.48 22 11.998C22 17.515 17.52 21.995 12.002 21.995C6.485 21.995 2.005 17.515 2.005 11.998C2.005 6.48 6.485 2 12.002 2ZM11.255 11.25H7.755C7.341 11.25 7.005 11.586 7.005 12C7.005 12.414 7.341 12.75 7.755 12.75H11.255V16.25C11.255 16.664 11.591 17 12.005 17C12.419 17 12.755 16.664 12.755 16.25V12.75H16.255C16.669 12.75 17.005 12.414 17.005 12C17.005 11.586 16.669 11.25 16.255 11.25H12.755V7.75C12.755 7.336 12.419 7 12.005 7C11.591 7 11.255 7.336 11.255 7.75V11.25Z" fill="#3B3142"/>
</svg>
