<svg width="32" height="22" viewBox="0 0 32 22" fill="none" xmlns="http://www.w3.org/2000/svg">
<g clip-path="url(#clip0_29_1304)">
<path d="M29.3333 0.333313H2.66667C1.19467 0.333313 0 1.52798 0 2.99998V19C0 20.472 1.19467 21.6666 2.66667 21.6666H29.3333C30.8053 21.6666 32 20.472 32 19V2.99998C32 1.52798 30.8053 0.333313 29.3333 0.333313ZM8 17.6666H4V16.3333H8V17.6666ZM14.6667 17.6666H10.6667V16.3333H14.6667V17.6666ZM15.0933 11.8306C14.5827 12.1493 13.9787 12.3333 13.3333 12.3333C11.492 12.3333 10 10.8413 10 8.99998C10 7.15865 11.492 5.66665 13.3333 5.66665C13.9787 5.66665 14.5827 5.85065 15.0933 6.16931C14.3853 6.90531 13.9507 7.90265 13.9507 8.99998C13.9507 10.0986 14.3853 11.0946 15.0933 11.8306ZM21.3333 17.6666H17.3333V16.3333H21.3333V17.6666ZM18.6667 12.3333C16.8253 12.3333 15.3333 10.8413 15.3333 8.99998C15.3333 7.15865 16.8253 5.66665 18.6667 5.66665C20.508 5.66665 22 7.15865 22 8.99998C22 10.8413 20.508 12.3333 18.6667 12.3333ZM28 17.6666H24V16.3333H28V17.6666Z" fill="#CEADFB"/>
</g>
<defs>
<clipPath id="clip0_29_1304">
<rect width="32" height="22" fill="white"/>
</clipPath>
</defs>
</svg>
