<svg width="156" height="31" viewBox="0 0 156 31" fill="none" xmlns="http://www.w3.org/2000/svg">
<path d="M134.24 29V28.6L134.72 28.44C135.68 28.12 136.16 27.4533 136.16 26.44V5.07999C136.16 4.51999 136.067 4.10666 135.88 3.83999C135.694 3.57332 135.334 3.37332 134.8 3.23999L134.2 3.07999V2.67999L141.24 0.959991L141.88 1.31999L141.72 6.95999V11.96C142.654 11.1867 143.654 10.5333 144.72 9.99999C145.814 9.43999 147.014 9.15999 148.32 9.15999C150.054 9.15999 151.427 9.65333 152.44 10.64C153.48 11.6267 154 13.1467 154 15.2V26.48C154 27.0133 154.107 27.44 154.32 27.76C154.534 28.08 154.907 28.32 155.44 28.48L155.76 28.6V29H146.4V28.6L146.88 28.48C147.84 28.16 148.32 27.48 148.32 26.44V13.88C148.32 12.8133 148.134 12.08 147.76 11.68C147.414 11.28 146.787 11.08 145.88 11.08C145.294 11.08 144.654 11.2 143.96 11.44C143.267 11.6533 142.56 12.04 141.84 12.6V26.52C141.84 27.56 142.32 28.2267 143.28 28.52L143.6 28.6V29H134.24Z" fill="#3B3142"/>
<path d="M125.134 29.6C123.321 29.6 121.667 29.2133 120.174 28.44C118.707 27.64 117.534 26.4933 116.654 25C115.801 23.48 115.374 21.6267 115.374 19.44C115.374 17.28 115.841 15.44 116.774 13.92C117.734 12.3733 119.001 11.2 120.574 10.4C122.174 9.57334 123.921 9.16 125.814 9.16C127.361 9.16 128.667 9.41334 129.734 9.92C130.801 10.4267 131.614 11.0933 132.174 11.92C132.734 12.72 133.014 13.56 133.014 14.44C133.014 15.1867 132.787 15.7733 132.334 16.2C131.881 16.6 131.294 16.8 130.574 16.8C129.801 16.8 129.174 16.52 128.694 15.96C128.214 15.4 127.934 14.6667 127.854 13.76C127.827 13.1733 127.841 12.68 127.894 12.28C127.947 11.8533 127.947 11.4267 127.894 11C127.787 10.5467 127.614 10.2533 127.374 10.12C127.161 9.96 126.854 9.88 126.454 9.88C124.827 9.88 123.561 10.5867 122.654 12C121.774 13.4133 121.334 15.6667 121.334 18.76C121.334 21.4533 121.827 23.52 122.814 24.96C123.827 26.3733 125.374 27.08 127.454 27.08C128.707 27.08 129.721 26.8533 130.494 26.4C131.267 25.9467 132.014 25.2667 132.734 24.36L133.134 24.68C132.467 26.2533 131.441 27.4667 130.054 28.32C128.667 29.1733 127.027 29.6 125.134 29.6Z" fill="#3B3142"/>
<path d="M104.981 9.16C106.714 9.16 108.194 9.52 109.421 10.24C110.647 10.9333 111.581 11.8933 112.221 13.12C112.887 14.32 113.221 15.6933 113.221 17.24C113.221 17.5333 113.207 17.84 113.181 18.16C113.154 18.4533 113.101 18.72 113.021 18.96H101.101C101.127 21.84 101.634 23.92 102.621 25.2C103.634 26.4533 105.127 27.08 107.101 27.08C108.434 27.08 109.514 26.8667 110.341 26.44C111.167 26.0133 111.941 25.3867 112.661 24.56L113.061 24.92C112.234 26.3867 111.127 27.5333 109.741 28.36C108.381 29.1867 106.741 29.6 104.821 29.6C102.927 29.6 101.247 29.2 99.7806 28.4C98.314 27.5733 97.1673 26.4 96.3406 24.88C95.514 23.36 95.1006 21.5467 95.1006 19.44C95.1006 17.2533 95.5806 15.4 96.5406 13.88C97.5006 12.3333 98.7273 11.16 100.221 10.36C101.741 9.56 103.327 9.16 104.981 9.16ZM104.861 9.96C104.087 9.96 103.421 10.2 102.861 10.68C102.327 11.1333 101.901 11.96 101.581 13.16C101.287 14.3333 101.127 16 101.101 18.16H107.941C108.207 15.2533 108.101 13.16 107.621 11.88C107.141 10.6 106.221 9.96 104.861 9.96Z" fill="#3B3142"/>
<path d="M88.2047 29.6C86.498 29.6 85.1647 29.1733 84.2047 28.32C83.2714 27.4667 82.8047 26.1067 82.8047 24.24V10.56H80.0447V10.16L81.0047 10C81.8314 9.81334 82.538 9.54667 83.1247 9.2C83.738 8.85334 84.338 8.38667 84.9247 7.8L88.2047 4.16H88.6047L88.4847 9.76H92.9647V10.56H88.4447V24.96C88.4447 25.8933 88.6447 26.6 89.0447 27.08C89.4714 27.56 90.0047 27.8 90.6447 27.8C91.2047 27.8 91.698 27.6667 92.1247 27.4C92.5514 27.1067 92.978 26.72 93.4047 26.24L93.8047 26.64C93.2714 27.5467 92.538 28.2667 91.6047 28.8C90.6714 29.3333 89.538 29.6 88.2047 29.6Z" fill="#3B3142"/>
<path d="M57.675 29V28.6L58.235 28.44C59.1683 28.1733 59.635 27.52 59.635 26.48V13.96C59.635 13.3733 59.5417 12.9467 59.355 12.68C59.1683 12.3867 58.8083 12.1867 58.275 12.08L57.675 11.92V11.52L64.515 9.2L64.915 9.6L65.235 12C66.1683 11.1733 67.2217 10.4933 68.395 9.96C69.5683 9.42667 70.7283 9.16 71.875 9.16C73.635 9.16 74.9817 9.64 75.915 10.6C76.875 11.56 77.355 13.0267 77.355 15V26.52C77.355 27.56 77.8617 28.2133 78.875 28.48L79.235 28.6V29H69.795V28.6L70.315 28.44C71.2483 28.1467 71.715 27.4933 71.715 26.48V13.72C71.715 12.0133 70.8617 11.16 69.155 11.16C67.9817 11.16 66.7017 11.7467 65.315 12.92V26.52C65.315 27.56 65.7817 28.2133 66.715 28.48L67.075 28.6V29H57.675Z" fill="#3B3142"/>
<path d="M51.2641 7.08C50.3574 7.08 49.5841 6.8 48.9441 6.24C48.3307 5.65333 48.0241 4.92 48.0241 4.04C48.0241 3.13333 48.3307 2.4 48.9441 1.84C49.5841 1.28 50.3574 1 51.2641 1C52.1707 1 52.9307 1.28 53.5441 1.84C54.1574 2.4 54.4641 3.13333 54.4641 4.04C54.4641 4.92 54.1574 5.65333 53.5441 6.24C52.9307 6.8 52.1707 7.08 51.2641 7.08ZM46.5441 29V28.6L47.1041 28.44C47.6374 28.28 47.9974 28.04 48.1841 27.72C48.3974 27.4 48.5041 26.9733 48.5041 26.44V13.92C48.5041 13.36 48.3974 12.9467 48.1841 12.68C47.9974 12.3867 47.6374 12.1867 47.1041 12.08L46.5441 11.96V11.56L53.8641 9.2L54.2641 9.6L54.1441 15.28V26.48C54.1441 27.0133 54.2374 27.44 54.4241 27.76C54.6374 28.08 54.9974 28.32 55.5041 28.48L55.9041 28.6V29H46.5441Z" fill="#3B3142"/>
<path d="M25.88 29V28.6L26.6 28.36C27.1333 28.1733 27.4933 27.92 27.68 27.6C27.8667 27.28 27.96 26.8533 27.96 26.32C27.9867 24.72 28 23.1067 28 21.48C28 19.8533 28 18.2267 28 16.6V15C28 13.4 28 11.8 28 10.2C28 8.57334 27.9867 6.96001 27.96 5.36001C27.96 4.82667 27.88 4.40001 27.72 4.08001C27.5867 3.76 27.2667 3.50667 26.76 3.32001L25.88 3.00001V2.60001H45.24L45.52 9.24001H45.12L42.84 5.04001C42.5733 4.53334 42.2667 4.13334 41.92 3.84001C41.5733 3.54667 41.0933 3.40001 40.48 3.40001H34.04C34.0133 5.29334 34 7.22667 34 9.20001C34 11.1733 34 13.1333 34 15.08H38.16C38.7733 15.08 39.2267 14.9467 39.52 14.68C39.8133 14.4133 40.0933 14.0267 40.36 13.52L41.2 12H41.6V19H41.2L40.32 17.48C40.0533 17 39.7733 16.6133 39.48 16.32C39.2133 16.0267 38.7733 15.88 38.16 15.88H34C34 17.7467 34 19.5333 34 21.24C34 22.92 34.0133 24.5733 34.04 26.2C34.04 27.24 34.5467 27.92 35.56 28.24L36.76 28.6V29H25.88Z" fill="#3B3142"/>
<path d="M17.0924 29.3716C16.7485 30.1251 15.8587 30.457 15.1051 30.1132C14.3516 29.7693 14.0197 28.8795 14.3634 28.1259L18.3575 19.3699C18.8552 18.2787 17.9343 17.0737 16.7506 17.2672L15.2238 17.5165C11.8498 18.0682 9.15991 14.8208 10.2264 11.6546L10.3418 11.3487L13.6356 3.4241C13.9536 2.65921 14.8318 2.29686 15.5967 2.61479C16.3616 2.93279 16.724 3.81097 16.406 4.57591L13.1122 12.5005C12.6611 13.5866 13.579 14.746 14.7398 14.5562L16.2665 14.3069C19.8176 13.7263 22.5803 17.3412 21.0872 20.6149L17.0924 29.3716Z" fill="#FFA886"/>
</svg>
