<svg width="34" height="34" viewBox="0 0 34 34" fill="none" xmlns="http://www.w3.org/2000/svg">
<path d="M31.1667 9.91669H4.25V25.5H2.83333V8.50002H31.1667V9.91669ZM28.3333 7.08335H1.41667V22.6667H0V5.66669H28.3333V7.08335ZM19.8333 15.5834C17.4873 15.5834 15.5833 17.4874 15.5833 19.8334C15.5833 22.1794 17.4873 24.0834 19.8333 24.0834C22.1793 24.0834 24.0833 22.1794 24.0833 19.8334C24.0833 17.4874 22.1793 15.5834 19.8333 15.5834ZM20.0458 21.9357V22.3819H19.6208V21.9584C19.1803 21.9513 18.7255 21.8464 18.3487 21.6509L18.5399 20.9525C18.9465 21.1084 19.4877 21.2769 19.9112 21.182C20.4 21.0715 20.4992 20.5686 19.9594 20.3264C19.5642 20.1436 18.3543 19.9835 18.3543 18.9479C18.3543 18.3685 18.7963 17.85 19.6222 17.7367V17.2848H20.0487V17.7169C20.3561 17.7254 20.7017 17.7778 21.0857 17.8954L20.9327 18.5938C20.6068 18.4804 20.2456 18.3756 19.8942 18.3969C19.2624 18.4337 19.2058 18.9819 19.6478 19.2114C20.3759 19.5543 21.3222 19.8064 21.3222 20.7174C21.3222 21.4484 20.7499 21.8379 20.0458 21.9357ZM5.66667 11.3334V28.3334H34V11.3334H5.66667ZM31.1667 22.6922C29.8081 23.2872 29.1904 24.14 28.5968 25.5H11.0698C10.4762 24.1414 9.85858 23.2872 8.5 22.6922V16.9745C9.85858 16.3795 10.4762 15.5267 11.0698 14.1667H28.5954C29.1904 15.5253 29.8067 16.3795 31.1652 16.9745L31.1667 22.6922Z" fill="#4FC364"/>
</svg>
