<svg width="13" height="13" viewBox="0 0 13 13" fill="none" xmlns="http://www.w3.org/2000/svg">
<path d="M12.0896 6.04478C12.0896 9.38321 9.38321 12.0896 6.04478 12.0896C2.70634 12.0896 0 9.38321 0 6.04478C0 2.70634 2.70634 0 6.04478 0C9.38321 0 12.0896 2.70634 12.0896 6.04478Z" fill="white"/>
<path fill-rule="evenodd" clip-rule="evenodd" d="M6.04478 11.6866C9.16065 11.6866 11.6866 9.16064 11.6866 6.04478C11.6866 2.92891 9.16065 0.403 6.04478 0.403C2.9289 0.403 0.402986 2.92891 0.402986 6.04478C0.402986 9.16064 2.9289 11.6866 6.04478 11.6866ZM3.36567 5.48184C3.13193 5.48184 2.94243 5.67133 2.94243 5.90508C2.94243 6.13883 3.13193 6.32832 3.36567 6.32832H8.44456C8.6783 6.32832 8.8678 6.13883 8.8678 5.90508C8.8678 5.67133 8.67831 5.48184 8.44456 5.48184H3.36567Z" fill="#FFA886"/>
</svg>
